<?xml version="1.0" encoding="UTF-8"?>
<svg xmlns="http://www.w3.org/2000/svg" viewBox="0 0 256 256" role="img" aria-label="Goalkeeper cat outline">
  <defs>
    <radialGradient id="bg" cx="50%" cy="40%" r="70%">
      <stop offset="0%" stop-color="#efe8f5"/>
      <stop offset="100%" stop-color="#d5c5e0"/>
    </radialGradient>
  </defs>
  <circle cx="128" cy="128" r="128" fill="url(#bg)"/>
  <!-- gloves -->
  <path fill="none" stroke="#0f172a" stroke-width="5" stroke-linecap="round" stroke-linejoin="round"
    d="M52 118c-8 2-14 14-8 24l18 22c4 6 12 8 18 4l8-6M204 118c8 2 14 14 8 24l-18 22c-4 6-12 8-18 4l-8-6"/>
  <!-- head + ears -->
  <path fill="none" stroke="#0f172a" stroke-width="5" stroke-linejoin="round"
    d="M88 150c0-28 18-52 40-52s40 24 40 52c0 24-14 42-40 42s-40-18-40-42z"/>
  <path fill="none" stroke="#0f172a" stroke-width="5" stroke-linejoin="round"
    d="M100 112l-8-28 28 16M156 112l8-28-28 16"/>
  <circle cx="112" cy="142" r="3.5" fill="#0f172a"/>
  <circle cx="144" cy="142" r="3.5" fill="#0f172a"/>
  <path fill="none" stroke="#0f172a" stroke-width="3.5" stroke-linecap="round"
    d="M122 152c4 5 10 5 14 0M100 156c-12 2-22-2-28-8M156 156c12 2 22-2 28-8"/>
  <!-- jersey + gloves raised -->
  <path fill="none" stroke="#0f172a" stroke-width="5" stroke-linejoin="round"
    d="M96 192c8-16 20-24 32-24s24 8 32 24"/>
  <path fill="none" stroke="#0f172a" stroke-width="4" d="M108 188h40M118 200h20"/>
  <circle cx="128" cy="72" r="18" fill="none" stroke="#0f172a" stroke-width="4"/>
  <path fill="none" stroke="#0f172a" stroke-width="3" d="M128 54v36M110 72h36"/>
</svg>
